# xmcd
#
# Track frame offsets:
#	150
#	13112
#	31502
#	44185
#	69560
#	86040
#	103812
#	121397
#	134205
#	155592
#	166772
#	180882
#
# Disc length: 2740 seconds
#
# Revision: 0
# Processed by: cddbd v1.4PL0 Copyright (c) Steve Scherf et al.
# Submitted via: EasyCDDAExtractor 4.5.0.2
#
DISCID=a00ab20c
DTITLE=Valerie Wellington - Million Dollar Secret
DYEAR=1995
DGENRE=Blues
TTITLE0=Down In The Dumps
TTITLE1=Million Dollar Secret
TTITLE2=Independent Blues
TTITLE3=Cold,Cold Secret
TTITLE4=Smokestack Lightning
TTITLE5=Dirt No-Gooders Blues
TTITLE6=My Baby Treats Me Like A Stepchild
TTITLE7=You Can't Have My Monkey
TTITLE8=Bad Avenue
TTITLE9=Love Don't Love Nobody
TTITLE10=Wild About You
TTITLE11=Voodo Blues
EXTD=
EXTT0=
EXTT1=
EXTT2=
EXTT3=
EXTT4=
EXTT5=
EXTT6=
EXTT7=
EXTT8=
EXTT9=
EXTT10=
EXTT11=
PLAYORDER=
